<mxfile host="app.diagrams.net" modified="2023-12-20T06:47:14.253Z" agent="Mozilla/5.0 (X11; Linux x86_64) AppleWebKit/537.36 (KHTML, like Gecko) Chrome/120.0.0.0 Safari/537.36" etag="FhXBkLZtxCyCuklnV3HW" version="22.1.11" type="device">
  <diagram name="Страница — 1" id="hMDCLRaQ2m_RS0oUCgCO">
    <mxGraphModel dx="1269" dy="662" grid="1" gridSize="10" guides="1" tooltips="1" connect="1" arrows="1" fold="1" page="1" pageScale="1" pageWidth="827" pageHeight="1169" math="0" shadow="0">
      <root>
        <mxCell id="0" />
        <mxCell id="1" parent="0" />
        <mxCell id="eM3_X_nF0LZRBQJgvfNX-11" style="edgeStyle=orthogonalEdgeStyle;rounded=0;orthogonalLoop=1;jettySize=auto;html=1;entryX=0.5;entryY=0;entryDx=0;entryDy=0;" edge="1" parent="1" source="eM3_X_nF0LZRBQJgvfNX-1" target="eM3_X_nF0LZRBQJgvfNX-2">
          <mxGeometry relative="1" as="geometry" />
        </mxCell>
        <mxCell id="eM3_X_nF0LZRBQJgvfNX-1" value="queue_update" style="ellipse;whiteSpace=wrap;html=1;" vertex="1" parent="1">
          <mxGeometry x="340" y="30" width="120" height="80" as="geometry" />
        </mxCell>
        <mxCell id="eM3_X_nF0LZRBQJgvfNX-12" style="edgeStyle=orthogonalEdgeStyle;rounded=0;orthogonalLoop=1;jettySize=auto;html=1;entryX=0.5;entryY=0;entryDx=0;entryDy=0;" edge="1" parent="1" source="eM3_X_nF0LZRBQJgvfNX-2" target="eM3_X_nF0LZRBQJgvfNX-3">
          <mxGeometry relative="1" as="geometry" />
        </mxCell>
        <mxCell id="eM3_X_nF0LZRBQJgvfNX-2" value="queue&lt;br&gt;data" style="rounded=0;whiteSpace=wrap;html=1;" vertex="1" parent="1">
          <mxGeometry x="340" y="130" width="120" height="60" as="geometry" />
        </mxCell>
        <mxCell id="eM3_X_nF0LZRBQJgvfNX-13" style="edgeStyle=orthogonalEdgeStyle;rounded=0;orthogonalLoop=1;jettySize=auto;html=1;entryX=0.5;entryY=0;entryDx=0;entryDy=0;" edge="1" parent="1" source="eM3_X_nF0LZRBQJgvfNX-3" target="eM3_X_nF0LZRBQJgvfNX-4">
          <mxGeometry relative="1" as="geometry" />
        </mxCell>
        <mxCell id="eM3_X_nF0LZRBQJgvfNX-3" value="lencur = strlen(queue-&amp;gt;tail-&amp;gt;c)" style="shape=process;whiteSpace=wrap;html=1;backgroundOutline=1;" vertex="1" parent="1">
          <mxGeometry x="340" y="220" width="120" height="60" as="geometry" />
        </mxCell>
        <mxCell id="eM3_X_nF0LZRBQJgvfNX-14" style="edgeStyle=orthogonalEdgeStyle;rounded=0;orthogonalLoop=1;jettySize=auto;html=1;entryX=0.5;entryY=0;entryDx=0;entryDy=0;" edge="1" parent="1" source="eM3_X_nF0LZRBQJgvfNX-4" target="eM3_X_nF0LZRBQJgvfNX-5">
          <mxGeometry relative="1" as="geometry" />
        </mxCell>
        <mxCell id="eM3_X_nF0LZRBQJgvfNX-15" style="edgeStyle=orthogonalEdgeStyle;rounded=0;orthogonalLoop=1;jettySize=auto;html=1;entryX=0.5;entryY=0;entryDx=0;entryDy=0;" edge="1" parent="1" source="eM3_X_nF0LZRBQJgvfNX-4" target="eM3_X_nF0LZRBQJgvfNX-6">
          <mxGeometry relative="1" as="geometry" />
        </mxCell>
        <mxCell id="eM3_X_nF0LZRBQJgvfNX-4" value="!queue-&amp;gt;tail-&amp;gt;c" style="rhombus;whiteSpace=wrap;html=1;" vertex="1" parent="1">
          <mxGeometry x="340" y="310" width="120" height="106.67" as="geometry" />
        </mxCell>
        <mxCell id="eM3_X_nF0LZRBQJgvfNX-18" style="edgeStyle=orthogonalEdgeStyle;rounded=0;orthogonalLoop=1;jettySize=auto;html=1;" edge="1" parent="1" source="eM3_X_nF0LZRBQJgvfNX-5">
          <mxGeometry relative="1" as="geometry">
            <mxPoint x="400" y="620" as="targetPoint" />
            <Array as="points">
              <mxPoint x="550" y="600" />
              <mxPoint x="401" y="600" />
            </Array>
          </mxGeometry>
        </mxCell>
        <mxCell id="eM3_X_nF0LZRBQJgvfNX-5" value="queue-&amp;gt;tail-&amp;gt;c = calloc(lencur+2, sizeof(char))" style="shape=process;whiteSpace=wrap;html=1;backgroundOutline=1;" vertex="1" parent="1">
          <mxGeometry x="490" y="440" width="120" height="60" as="geometry" />
        </mxCell>
        <mxCell id="eM3_X_nF0LZRBQJgvfNX-16" style="edgeStyle=orthogonalEdgeStyle;rounded=0;orthogonalLoop=1;jettySize=auto;html=1;entryX=0.5;entryY=0;entryDx=0;entryDy=0;" edge="1" parent="1" source="eM3_X_nF0LZRBQJgvfNX-6" target="eM3_X_nF0LZRBQJgvfNX-9">
          <mxGeometry relative="1" as="geometry" />
        </mxCell>
        <mxCell id="eM3_X_nF0LZRBQJgvfNX-6" value="queue-&amp;gt;tail-&amp;gt;c = realloc(queue-&amp;gt;tail-&amp;gt;c, lencur+2)" style="shape=process;whiteSpace=wrap;html=1;backgroundOutline=1;" vertex="1" parent="1">
          <mxGeometry x="190" y="440" width="120" height="60" as="geometry" />
        </mxCell>
        <mxCell id="eM3_X_nF0LZRBQJgvfNX-17" style="edgeStyle=orthogonalEdgeStyle;rounded=0;orthogonalLoop=1;jettySize=auto;html=1;entryX=0.5;entryY=0;entryDx=0;entryDy=0;" edge="1" parent="1" source="eM3_X_nF0LZRBQJgvfNX-9" target="eM3_X_nF0LZRBQJgvfNX-10">
          <mxGeometry relative="1" as="geometry">
            <Array as="points">
              <mxPoint x="250" y="600" />
              <mxPoint x="400" y="600" />
            </Array>
          </mxGeometry>
        </mxCell>
        <mxCell id="eM3_X_nF0LZRBQJgvfNX-9" value="&lt;span style=&quot;color: rgb(0, 0, 0); font-family: Helvetica; font-size: 12px; font-style: normal; font-variant-ligatures: normal; font-variant-caps: normal; font-weight: 400; letter-spacing: normal; orphans: 2; text-align: center; text-indent: 0px; text-transform: none; widows: 2; word-spacing: 0px; -webkit-text-stroke-width: 0px; background-color: rgb(251, 251, 251); text-decoration-thickness: initial; text-decoration-style: initial; text-decoration-color: initial; float: none; display: inline !important;&quot;&gt;queue-&amp;gt;tail-&amp;gt;c[lencur+1] = 0&lt;/span&gt;" style="rounded=0;whiteSpace=wrap;html=1;" vertex="1" parent="1">
          <mxGeometry x="190" y="530" width="120" height="60" as="geometry" />
        </mxCell>
        <mxCell id="eM3_X_nF0LZRBQJgvfNX-20" style="edgeStyle=orthogonalEdgeStyle;rounded=0;orthogonalLoop=1;jettySize=auto;html=1;entryX=0.5;entryY=0;entryDx=0;entryDy=0;" edge="1" parent="1" source="eM3_X_nF0LZRBQJgvfNX-10" target="eM3_X_nF0LZRBQJgvfNX-19">
          <mxGeometry relative="1" as="geometry" />
        </mxCell>
        <mxCell id="eM3_X_nF0LZRBQJgvfNX-10" value="queue-&amp;gt;tail-&amp;gt;c[lencur] = data" style="rounded=0;whiteSpace=wrap;html=1;" vertex="1" parent="1">
          <mxGeometry x="340" y="620" width="120" height="60" as="geometry" />
        </mxCell>
        <mxCell id="eM3_X_nF0LZRBQJgvfNX-19" value="end" style="ellipse;whiteSpace=wrap;html=1;" vertex="1" parent="1">
          <mxGeometry x="340" y="710" width="120" height="80" as="geometry" />
        </mxCell>
        <mxCell id="eM3_X_nF0LZRBQJgvfNX-21" value="1" style="text;html=1;strokeColor=none;fillColor=none;align=center;verticalAlign=middle;whiteSpace=wrap;rounded=0;" vertex="1" parent="1">
          <mxGeometry x="220" width="60" height="30" as="geometry" />
        </mxCell>
        <mxCell id="eM3_X_nF0LZRBQJgvfNX-22" value="2" style="text;html=1;strokeColor=none;fillColor=none;align=center;verticalAlign=middle;whiteSpace=wrap;rounded=0;" vertex="1" parent="1">
          <mxGeometry x="370" width="60" height="30" as="geometry" />
        </mxCell>
        <mxCell id="eM3_X_nF0LZRBQJgvfNX-23" value="3" style="text;html=1;strokeColor=none;fillColor=none;align=center;verticalAlign=middle;whiteSpace=wrap;rounded=0;" vertex="1" parent="1">
          <mxGeometry x="520" width="60" height="30" as="geometry" />
        </mxCell>
        <mxCell id="eM3_X_nF0LZRBQJgvfNX-24" value="A" style="text;html=1;strokeColor=none;fillColor=none;align=center;verticalAlign=middle;whiteSpace=wrap;rounded=0;" vertex="1" parent="1">
          <mxGeometry x="110" y="55" width="60" height="30" as="geometry" />
        </mxCell>
        <mxCell id="eM3_X_nF0LZRBQJgvfNX-25" value="B" style="text;html=1;strokeColor=none;fillColor=none;align=center;verticalAlign=middle;whiteSpace=wrap;rounded=0;" vertex="1" parent="1">
          <mxGeometry x="110" y="145" width="60" height="30" as="geometry" />
        </mxCell>
        <mxCell id="eM3_X_nF0LZRBQJgvfNX-26" value="C" style="text;html=1;strokeColor=none;fillColor=none;align=center;verticalAlign=middle;whiteSpace=wrap;rounded=0;" vertex="1" parent="1">
          <mxGeometry x="110" y="235" width="60" height="30" as="geometry" />
        </mxCell>
        <mxCell id="eM3_X_nF0LZRBQJgvfNX-27" value="D" style="text;html=1;strokeColor=none;fillColor=none;align=center;verticalAlign=middle;whiteSpace=wrap;rounded=0;" vertex="1" parent="1">
          <mxGeometry x="110" y="348.34000000000003" width="60" height="30" as="geometry" />
        </mxCell>
        <mxCell id="eM3_X_nF0LZRBQJgvfNX-28" value="E" style="text;html=1;strokeColor=none;fillColor=none;align=center;verticalAlign=middle;whiteSpace=wrap;rounded=0;" vertex="1" parent="1">
          <mxGeometry x="110" y="455" width="60" height="30" as="geometry" />
        </mxCell>
        <mxCell id="eM3_X_nF0LZRBQJgvfNX-29" value="F" style="text;html=1;strokeColor=none;fillColor=none;align=center;verticalAlign=middle;whiteSpace=wrap;rounded=0;" vertex="1" parent="1">
          <mxGeometry x="110" y="545" width="60" height="30" as="geometry" />
        </mxCell>
        <mxCell id="eM3_X_nF0LZRBQJgvfNX-30" value="G" style="text;html=1;strokeColor=none;fillColor=none;align=center;verticalAlign=middle;whiteSpace=wrap;rounded=0;" vertex="1" parent="1">
          <mxGeometry x="110" y="635" width="60" height="30" as="geometry" />
        </mxCell>
        <mxCell id="eM3_X_nF0LZRBQJgvfNX-31" value="H" style="text;html=1;strokeColor=none;fillColor=none;align=center;verticalAlign=middle;whiteSpace=wrap;rounded=0;" vertex="1" parent="1">
          <mxGeometry x="110" y="735" width="60" height="30" as="geometry" />
        </mxCell>
      </root>
    </mxGraphModel>
  </diagram>
</mxfile>
